<svg width="209" height="71" viewBox="0 0 209 71" fill="none" xmlns="http://www.w3.org/2000/svg">
<path d="M30.7499 33.9535H28.6999V41.6047H26.6499V44.8837H24.5999V47.0698H22.5499V55.8139H24.5999V58H20.4999V51.4419H18.4499V49.2558H16.4V51.4419H14.35V53.6278H12.3V55.8139H14.35V58H10.25V49.2558H8.19996V47.0698H6.14996V44.8837H4.1V42.6977H2.04999V40.5116H0V27.3954H2.04999V31.7674H4.1V33.9535H6.14996V36.1396H10.25V33.9535H12.3V31.7674H15.375V29.5814H18.4499V27.3954H20.4999V13.186H22.5499V11H38.9497V13.186H41V23.0233H30.7499V25.2093H36.8999V27.3954H28.6999V31.7674H32.7999V36.1396H30.7499V33.9535ZM24.5999 14.2791V16.4651H26.6499V14.2791H24.5999Z" fill="#DE492D"/>
<path d="M89.6328 52H67.6484C67.0859 52 66.4766 51.9375 65.8203 51.8125C65.1797 51.6719 64.5391 51.4609 63.8984 51.1797C63.2734 50.8984 62.6719 50.5391 62.0938 50.1016C61.5156 49.6484 61 49.1094 60.5469 48.4844C60.1094 47.8438 59.7578 47.1094 59.4922 46.2812C59.2266 45.4375 59.0938 44.4922 59.0938 43.4453V26.9453C59.0938 26.3828 59.1562 25.7812 59.2812 25.1406C59.4219 24.4844 59.6328 23.8438 59.9141 23.2188C60.1953 22.5781 60.5625 21.9688 61.0156 21.3906C61.4688 20.8125 62.0078 20.3047 62.6328 19.8672C63.2734 19.4141 64.0078 19.0547 64.8359 18.7891C65.6641 18.5234 66.6016 18.3906 67.6484 18.3906H89.6328V24.4844H67.6484C66.8516 24.4844 66.2422 24.6953 65.8203 25.1172C65.3984 25.5391 65.1875 26.1641 65.1875 26.9922V43.4453C65.1875 44.2266 65.3984 44.8359 65.8203 45.2734C66.2578 45.6953 66.8672 45.9062 67.6484 45.9062H89.6328V52Z" fill="#DE492D"/>
<path d="M90.6594 56.8L106.499 11.584H109.619L93.7794 56.8H90.6594ZM101.698 52V18.4H117.058C120.13 18.4 122.77 18.896 124.978 19.888C127.218 20.88 128.946 22.32 130.162 24.208C131.378 26.064 131.986 28.272 131.986 30.832C131.986 33.36 131.378 35.552 130.162 37.408C128.946 39.232 127.218 40.64 124.978 41.632C122.77 42.592 120.13 43.072 117.058 43.072H106.978L111.202 39.088V52H101.698ZM122.482 52L114.13 39.76H124.258L132.658 52H122.482ZM111.202 40.096L106.978 35.728H116.482C118.466 35.728 119.938 35.296 120.898 34.432C121.89 33.568 122.386 32.368 122.386 30.832C122.386 29.264 121.89 28.048 120.898 27.184C119.938 26.32 118.466 25.888 116.482 25.888H106.978L111.202 21.52V40.096ZM145.965 31.408H161.565V38.512H145.965V31.408ZM146.637 44.656H164.205V52H137.229V18.4H163.581V25.744H146.637V44.656ZM165.742 52L180.43 31.6L180.382 38.368L166.27 18.4H176.974L185.998 31.408L181.438 31.456L190.318 18.4H200.59L186.478 37.984V31.264L201.358 52H190.414L181.246 38.32H185.614L176.59 52H165.742Z" fill="white"/>
<path d="M106.081 12.8083L100.742 28.108L89.9739 14.5837L106.081 12.8083Z" fill="black"/>
</svg>
